# xmcd
#
# Track frame offsets:
# 150
# 22456
# 36557
# 57153
# 76589
# 95043
# 111062
# 128025
# 146096
# 166220
# 185276
# 204942
# 225665
# 244081
# 264857
# 284671
# 303252
# 318270
#
# Disc length: 4462 seconds
#
#
# Revision: 0
# Processed by: cddbd v1.5.1PL0 Copyright (c) Steve Scherf et al.
# Submitted via: FreeRIP 2.90 
#
DISCID=f8116c12
DTITLE=Sting and The Police - The very best of...
DYEAR=1900
DGENRE=Pop
TTITLE0=Message in a bottle
TTITLE1=Can't stand losing you
TTITLE2=Englishman in New York
TTITLE3=Every breath you take
TTITLE4=Seven days
TTITLE5=Walking on the moon
TTITLE6=Fileds of gold
TTITLE7=Fragile
TTITLE8=Every little thing she does is magic
TTITLE9=De do do do, de da da da
TTITLE10=If you love somebody she them free
TTITLE11=Let your soul be your pilot
TTITLE12=Russians
TTITLE13=If i every lose my faith in you
TTITLE14=When we dance
TTITLE15=Don't stand so close to me
TTITLE16=Roxanne
TTITLE17=Roxanne '97 - Puffy Daddy Remix
EXTD=
EXTT0=
EXTT1=
EXTT2=
EXTT3=
EXTT4=
EXTT5=
EXTT6=
EXTT7=
EXTT8=
EXTT9=
EXTT10=
EXTT11=
EXTT12=
EXTT13=
EXTT14=
EXTT15=
EXTT16=
EXTT17=
PLAYORDER=
